<?xml version="1.0" standalone="no"?>
<!-- Generator: Adobe Fireworks 10, Export SVG Extension by Aaron Beall (http://fireworks.abeall.com) . Version: 0.6.1  -->
<!DOCTYPE svg PUBLIC "-//W3C//DTD SVG 1.1//EN" "http://www.w3.org/Graphics/SVG/1.1/DTD/svg11.dtd">
<svg id="Untitled-%u30DA%u30FC%u30B8%201" viewBox="0 0 256 256" style="background-color:#ffffff00" version="1.1"
	xmlns="http://www.w3.org/2000/svg" xmlns:xlink="http://www.w3.org/1999/xlink" xml:space="preserve"
	x="0px" y="0px" width="256px" height="256px"
>
	<g id="%u30EC%u30A4%u30E4%u30FC%201">
		<rect opacity="0.2" x="0" y="0" width="256" height="256" fill="#000000"/>
		<g>
			<path d="M 58.1094 105.125 C 58.7031 104.5469 59 103.8438 59 103.0156 C 59 102.1563 58.7031 101.4375 58.1094 100.8594 C 57.5156 100.2969 56.8125 100 55.9688 100 C 55.1406 100 54.4375 100.2969 53.8594 100.8594 C 53.2813 101.4375 53 102.1563 53 103.0156 C 53 103.8906 53.2813 104.5938 53.8594 105.1563 C 54.4375 105.7188 55.1406 106 55.9688 106 C 56.8125 106 57.5156 105.7188 58.1094 105.125 L 58.1094 105.125 ZM 59 113 L 54 113 L 54 142 L 59 142 L 59 113 L 59 113 Z" stroke="#666666" stroke-width="2" fill="none"/>
			<path d="M 109 123.9375 C 109 115.9844 105.8438 112 99.5313 112 C 95.2969 112 92.125 114.0313 90 118.0625 C 89.4531 116.25 88.4531 114.7969 87.0156 113.6719 C 85.5781 112.5625 83.875 112 81.9375 112 C 78.0625 112 75.125 113.7813 73.1094 117.3438 L 73 117.3438 L 73 113 L 68 113 L 68 142 L 73 142 L 73 125.3125 C 73 122.5625 73.625 120.3125 74.8906 118.5938 C 76.1406 116.875 77.75 116 79.7031 116 C 83.8906 116 86 118.875 86 124.625 L 86 142 L 91 142 L 91 125.3125 C 91 122.7656 91.6563 120.5781 92.9844 118.75 C 94.2969 116.9219 95.9063 116 97.8125 116 C 100.0313 116 101.625 116.7344 102.5781 118.1719 C 103.5156 119.625 104 121.9688 104 125.2031 L 104 142 L 109 142 L 109 123.9375 L 109 123.9375 Z" stroke="#666666" stroke-width="2" fill="none"/>
			<path d="M 138 122.9375 C 138 115.6563 134.5938 112 127.8125 112 C 124.1094 112 120.8438 112.8594 118 114.5469 L 118 119 C 120.7188 117 123.7813 116 127.1875 116 C 131.0625 116 133 118.6719 133 124 L 124.4375 125.2188 C 118.1406 126.1094 115 129.25 115 134.6406 C 115 137.1719 115.7969 139.1875 117.4063 140.7188 C 119.0156 142.2344 121.25 143 124.0938 143 C 127.9688 143 130.8906 141.25 132.8906 137.7188 L 133 137.7188 L 133 142 L 138 142 L 138 122.9375 L 138 122.9375 ZM 133 130.7813 C 133 133.1563 132.2656 135.125 130.8281 136.6719 C 129.3906 138.2344 127.5625 139 125.3438 139 C 123.7188 139 122.4219 138.5781 121.4531 137.7031 C 120.4844 136.8438 120 135.7344 120 134.375 C 120 132.5 120.5156 131.2031 121.5781 130.4688 C 122.625 129.7344 124.1875 129.2188 126.2656 128.9219 L 133 128 L 133 130.7813 L 133 130.7813 Z" stroke="#666666" stroke-width="2" fill="none"/>
			<path d="M 171 113 L 166 113 L 166 116.7813 L 165.8906 116.7813 C 164 113.5938 161.1094 112 157.2344 112 C 153.125 112 149.8906 113.4844 147.5313 116.4531 C 145.1719 119.4219 144 123.4219 144 128.4531 C 144 132.8906 145.0938 136.4375 147.2813 139.0625 C 149.4688 141.6875 152.3594 143 155.9531 143 C 160.375 143 163.6875 141.1406 165.8906 137.3906 L 166 137.3906 L 166 140.5781 C 166 148.1875 162.4375 152 155.3281 152 C 152.3594 152 149.25 151 146 149 L 146 153.8594 C 148.7188 155.2813 151.8906 156 155.5156 156 C 165.8281 156 171 150.625 171 139.8906 L 171 113 L 171 113 ZM 163.5938 136.1719 C 161.9844 138.0625 159.9063 139 157.3594 139 C 154.8281 139 152.8125 138.0156 151.2813 136.0469 C 149.75 134.0781 149 131.4375 149 128.1406 C 149 124.3125 149.7969 121.3281 151.3906 119.2031 C 152.9844 117.0781 155.1875 116 158 116 C 160.2813 116 162.1719 116.8438 163.7031 118.5156 C 165.2344 120.2031 166 122.2031 166 124.5469 L 166 128.9219 C 166 131.875 165.1875 134.2969 163.5938 136.1719 L 163.5938 136.1719 Z" stroke="#666666" stroke-width="2" fill="none"/>
			<path d="M 203 126.4688 C 203 121.9375 201.9688 118.3906 199.9219 115.8281 C 197.8594 113.2813 194.9688 112 191.2188 112 C 187.4688 112 184.3281 113.4531 181.7969 116.3594 C 179.2656 119.2656 178 123.0156 178 127.6094 C 178 132.5 179.1563 136.2813 181.4688 138.9688 C 183.7813 141.6563 186.9531 143 191.0156 143 C 195.1406 143 198.4688 142.0938 201 140.2813 L 201 136 C 198.3281 138 195.4063 139 192.2188 139 C 189.375 139 187.1563 138.1406 185.5313 136.4063 C 183.9063 134.6719 183.0625 132.2031 183 129 L 203 129 L 203 126.4688 L 203 126.4688 ZM 183.0469 125 C 183.3906 122.3281 184.2813 120.1563 185.75 118.5 C 187.2031 116.8438 188.9844 116 191.0781 116 C 193.2344 116 194.9219 116.7969 196.1406 118.375 C 197.3594 119.9531 197.9688 122.1563 198 125 L 183.0469 125 L 183.0469 125 Z" stroke="#666666" stroke-width="2" fill="none"/>
		</g>
	</g>
</svg>